<mxfile host="app.diagrams.net" modified="2023-10-21T09:17:27.239Z" agent="Mozilla/5.0 (Windows NT 10.0; Win64; x64) AppleWebKit/537.36 (KHTML, like Gecko) Chrome/112.0.0.0 Safari/537.36" version="22.0.5" etag="i5ldiw50gTpyAVqMWHd0" type="github">
  <diagram name="第 1 页" id="Z4Fd0cQpRciaoCQ8HNkG">
    <mxGraphModel>
      <root>
        <mxCell id="0" />
        <mxCell id="1" parent="0" />
      </root>
    </mxGraphModel>
  </diagram>
</mxfile>
